<svg width="1200" height="580" viewBox="0 0 1200 580" xmlns="http://www.w3.org/2000/svg" font-family="'Consolas', 'Courier New', monospace">
  <!-- VS Code window -->
  <rect width="1200" height="580" fill="#1e1e1e"/>
  <!-- Title bar -->
  <rect x="0" y="0" width="1200" height="30" fill="#3c3c3c"/>
  <text x="600" y="19" font-size="11" fill="#ccc" text-anchor="middle">sales-kpi-dashboard — Visual Studio Code</text>
  <circle cx="20" cy="15" r="6" fill="#ff5f57"/>
  <circle cx="38" cy="15" r="6" fill="#febc2e"/>
  <circle cx="56" cy="15" r="6" fill="#28c840"/>

  <!-- Activity bar (left icons) -->
  <rect x="0" y="30" width="48" height="550" fill="#333"/>
  <rect x="12" y="50" width="24" height="24" rx="3" fill="#0078d4" opacity="0.8"/>
  <rect x="12" y="90" width="24" height="24" rx="3" fill="#555"/>
  <rect x="12" y="130" width="24" height="24" rx="3" fill="#555"/>
  <rect x="12" y="170" width="24" height="24" rx="3" fill="#555"/>

  <!-- File explorer panel -->
  <rect x="48" y="30" width="200" height="550" fill="#252526"/>
  <text x="58" y="52" font-size="10" fill="#bbb" font-weight="600">EXPLORER</text>
  <text x="58" y="72" font-size="10" fill="#888">▾ SALES-KPI-DASHBOARD</text>
  <text x="68" y="90" font-size="10" fill="#888">▾ analysis</text>
  <text x="78" y="106" font-size="10" fill="#9cdcfe">  clean.py</text>
  <text x="78" y="122" font-size="10" fill="#9cdcfe">  sql_runner.py</text>
  <text x="78" y="138" font-size="10" fill="#9cdcfe">  trend_detector.py</text>
  <text x="68" y="154" font-size="10" fill="#888">▾ dashboard</text>
  <text x="78" y="170" font-size="10" fill="#9cdcfe">  app.py</text>
  <text x="68" y="186" font-size="10" fill="#888">▾ reports</text>
  <text x="78" y="202" font-size="10" fill="#9cdcfe">  report_generator.py</text>
  <text x="68" y="218" font-size="10" fill="#888">▸ sql</text>
  <text x="68" y="234" font-size="10" fill="#888">▸ data</text>
  <text x="68" y="250" font-size="10" fill="#569cd6">  config.py</text>
  <text x="68" y="266" font-size="10" fill="#569cd6">  main.py</text>
  <text x="68" y="282" font-size="10" fill="#ce9178">  requirements.txt</text>
  <text x="68" y="298" font-size="10" fill="#ce9178">  README.md</text>

  <!-- Terminal area -->
  <rect x="248" y="30" width="952" height="550" fill="#1e1e1e"/>

  <!-- Terminal tab bar -->
  <rect x="248" y="30" width="952" height="28" fill="#2d2d2d"/>
  <rect x="258" y="36" width="80" height="18" rx="3" fill="#1e1e1e"/>
  <text x="263" y="48" font-size="10" fill="#ccc">TERMINAL</text>
  <text x="900" y="48" font-size="10" fill="#888">+ ∨ ×</text>

  <!-- Terminal content -->
  <rect x="248" y="58" width="952" height="522" fill="#1e1e1e"/>

  <text x="268" y="82" font-size="11" fill="#4ec9b0">(.venv) PS</text>
  <text x="368" y="82" font-size="11" fill="#9cdcfe">C:\projects\sales-kpi-dashboard</text>
  <text x="640" y="82" font-size="11" fill="#ccc">&gt; python main.py</text>

  <!-- Step 1 -->
  <text x="268" y="106" font-size="11" fill="#888">============================================================</text>
  <text x="268" y="124" font-size="11" fill="#dcdcaa">STEP 1 — Data Cleaning</text>
  <text x="268" y="142" font-size="11" fill="#888">============================================================</text>
  <text x="268" y="160" font-size="11" fill="#ccc">[clean] Loading raw data from: data/raw/superstore.csv</text>
  <text x="268" y="178" font-size="11" fill="#ccc">  Shape: (9994, 21)</text>
  <text x="268" y="196" font-size="11" fill="#ccc">  [clean] Removed 0 duplicate rows.</text>
  <text x="268" y="214" font-size="11" fill="#ccc">  [clean] Filled 11 missing values in 'postal_code' with 'Unknown'.</text>
  <text x="268" y="232" font-size="11" fill="#ccc">  [clean] Flagged 47 outliers in 'sales' (IQR ×3).</text>
  <text x="268" y="250" font-size="11" fill="#ccc">  [clean] Flagged 91 outliers in 'profit' (IQR ×3).</text>
  <text x="268" y="268" font-size="11" fill="#4ec9b0">[clean] Saved clean data → data/processed/superstore_clean.csv</text>
  <text x="268" y="286" font-size="11" fill="#4ec9b0">  Final shape: (9994, 27)</text>

  <!-- Step 2 -->
  <text x="268" y="310" font-size="11" fill="#888">============================================================</text>
  <text x="268" y="328" font-size="11" fill="#dcdcaa">STEP 2 — Load to SQLite</text>
  <text x="268" y="346" font-size="11" fill="#888">============================================================</text>
  <text x="268" y="364" font-size="11" fill="#ccc">[sql_runner] Loading 'data/processed/superstore_clean.csv' → SQLite</text>
  <text x="268" y="382" font-size="11" fill="#4ec9b0">  Loaded 9,994 rows.</text>

  <!-- Step 3 -->
  <text x="268" y="406" font-size="11" fill="#888">============================================================</text>
  <text x="268" y="424" font-size="11" fill="#dcdcaa">STEP 3 — Run SQL KPI Queries</text>
  <text x="268" y="442" font-size="11" fill="#888">============================================================</text>
  <text x="268" y="460" font-size="11" fill="#ccc">  [sql_runner] Running 01_revenue_by_region.sql … <tspan fill="#4ec9b0">4 rows</tspan></text>
  <text x="268" y="476" font-size="11" fill="#ccc">  [sql_runner] Running 02_monthly_growth.sql … <tspan fill="#4ec9b0">48 rows</tspan></text>
  <text x="268" y="492" font-size="11" fill="#ccc">  [sql_runner] Running 03_top_products.sql … <tspan fill="#4ec9b0">10 rows</tspan></text>
  <text x="268" y="508" font-size="11" fill="#ccc">  [sql_runner] Running 04_category_breakdown.sql … <tspan fill="#4ec9b0">17 rows</tspan></text>
  <text x="268" y="524" font-size="11" fill="#ccc">  [sql_runner] Running 05_customer_segments.sql … <tspan fill="#4ec9b0">3 rows</tspan></text>

  <!-- Step indicator (truncated) -->
  <text x="268" y="548" font-size="11" fill="#888">  … (queries 6-8 complete)</text>
  <text x="268" y="566" font-size="11" fill="#569cd6">✅ Pipeline complete. To launch:  streamlit run dashboard/app.py</text>
</svg>
