<svg width="1200" height="500" viewBox="0 0 1200 500" xmlns="http://www.w3.org/2000/svg" font-family="system-ui, -apple-system, sans-serif">
  <rect width="1200" height="500" fill="#f0f2f6"/>
  <rect x="0" y="0" width="1200" height="40" fill="#262730"/>
  <circle cx="20" cy="20" r="6" fill="#ff5f57"/>
  <circle cx="38" cy="20" r="6" fill="#febc2e"/>
  <circle cx="56" cy="20" r="6" fill="#28c840"/>
  <rect x="200" y="8" width="600" height="24" rx="4" fill="#1a1c26"/>
  <text x="500" y="24" font-size="11" fill="#888" text-anchor="middle">localhost:8501</text>
  <rect x="0" y="40" width="220" height="460" fill="#262730"/>
  <text x="16" y="80" font-size="13" fill="#fff" font-weight="600">Sales KPI Dashboard</text>

  <text x="248" y="88" font-size="18" fill="#1f3864" font-weight="700">🏆 Top 10 Products by Revenue</text>

  <rect x="232" y="98" width="950" height="390" rx="8" fill="#fff" stroke="#e0e0e0" stroke-width="0.5"/>

  <!-- Bars (horizontal) with product names -->
  <!-- Product 1 -->
  <text x="530" y="126" font-size="10" fill="#555" text-anchor="end">Canon imageCLASS 2200 Copier</text>
  <rect x="535" y="112" width="500" height="24" rx="3" fill="#0d47a1"/>
  <text x="1043" y="128" font-size="10" fill="#333">$61.6K</text>

  <!-- Product 2 -->
  <text x="530" y="160" font-size="10" fill="#555" text-anchor="end">Fellowes PB500 Binding Machine</text>
  <rect x="535" y="146" width="430" height="24" rx="3" fill="#1565c0"/>
  <text x="973" y="162" font-size="10" fill="#333">$27.5K</text>

  <!-- Product 3 -->
  <text x="530" y="194" font-size="10" fill="#555" text-anchor="end">Cisco TelePresence System EX90</text>
  <rect x="535" y="180" width="380" height="24" rx="3" fill="#1976d2"/>
  <text x="923" y="196" font-size="10" fill="#333">$22.6K</text>

  <!-- Product 4 -->
  <text x="530" y="228" font-size="10" fill="#555" text-anchor="end">HON 5400 Series Task Chairs</text>
  <rect x="535" y="214" width="340" height="24" rx="3" fill="#1e88e5"/>
  <text x="883" y="230" font-size="10" fill="#333">$21.9K</text>

  <!-- Product 5 -->
  <text x="530" y="262" font-size="10" fill="#555" text-anchor="end">GBC DocuBind TL300 Binder</text>
  <rect x="535" y="248" width="310" height="24" rx="3" fill="#2196f3"/>
  <text x="853" y="264" font-size="10" fill="#333">$19.8K</text>

  <!-- Product 6 -->
  <text x="530" y="296" font-size="10" fill="#555" text-anchor="end">Motorola Smart Phone, Full Size</text>
  <rect x="535" y="282" width="270" height="24" rx="3" fill="#42a5f5"/>
  <text x="813" y="298" font-size="10" fill="#333">$17.2K</text>

  <!-- Product 7 -->
  <text x="530" y="330" font-size="10" fill="#555" text-anchor="end">High Speed Automatic Juicer</text>
  <rect x="535" y="316" width="240" height="24" rx="3" fill="#64b5f6"/>
  <text x="783" y="332" font-size="10" fill="#333">$15.5K</text>

  <!-- Product 8 -->
  <text x="530" y="364" font-size="10" fill="#555" text-anchor="end">Zebra ZM400 Thermal Label Printer</text>
  <rect x="535" y="350" width="200" height="24" rx="3" fill="#90caf9"/>
  <text x="743" y="366" font-size="10" fill="#333">$13.8K</text>

  <!-- Product 9 -->
  <text x="530" y="398" font-size="10" fill="#555" text-anchor="end">Ativa V4110MDD Micro-Cut Shredder</text>
  <rect x="535" y="384" width="165" height="24" rx="3" fill="#bbdefb"/>
  <text x="708" y="400" font-size="10" fill="#333">$12.1K</text>

  <!-- Product 10 -->
  <text x="530" y="432" font-size="10" fill="#555" text-anchor="end">Apple iPhone 13 Pro Max</text>
  <rect x="535" y="418" width="130" height="24" rx="3" fill="#e3f2fd"/>
  <text x="673" y="434" font-size="10" fill="#333">$10.7K</text>

  <!-- X axis line -->
  <line x1="535" y1="448" x2="1050" y2="448" stroke="#eee" stroke-width="1"/>
  <text x="535" y="460" font-size="9" fill="#aaa">$0</text>
  <text x="660" y="460" font-size="9" fill="#aaa" text-anchor="middle">$10K</text>
  <text x="785" y="460" font-size="9" fill="#aaa" text-anchor="middle">$20K</text>
  <text x="910" y="460" font-size="9" fill="#aaa" text-anchor="middle">$40K</text>
  <text x="1035" y="460" font-size="9" fill="#aaa" text-anchor="middle">$60K</text>
</svg>
